<svg xmlns="http://www.w3.org/2000/svg" width="500" height="500" viewBox="0 0 500 500">
<g>
<path d="M 281.50 475.96 C271.03,477.48 262.96,477.95 249.50,477.84 C229.70,477.69 230.63,477.76 213.25,474.94 C167.84,467.58 124.96,445.59 91.52,412.52 C73.29,394.50 61.53,378.61 49.68,356.00 C34.17,326.38 26.34,298.43 24.07,264.54 C21.37,224.23 29.08,186.00 47.48,148.50 C69.15,104.33 103.76,69.23 147.66,46.90 C169.62,35.72 190.90,28.90 216.50,24.82 C235.15,21.85 266.18,21.88 285.00,24.88 C341.70,33.91 391.33,62.53 426.54,106.50 C489.23,184.78 493.97,294.35 438.27,377.50 C402.21,431.33 346.06,466.59 281.50,475.96 ZM 270.00 82.81 L 270.00 403.00 L 299.25 402.98 C330.77,402.96 337.46,402.22 347.45,397.65 C358.73,392.49 365.24,383.07 368.67,367.00 C370.24,359.62 370.48,353.31 370.49,319.00 C370.50,276.63 370.04,271.88 364.94,261.88 C362.15,256.41 355.30,249.72 350.18,247.46 C346.52,245.85 346.00,245.21 346.00,242.40 C346.00,239.57 346.62,238.84 351.31,236.19 C357.54,232.68 362.53,227.32 365.20,221.28 C369.46,211.65 369.96,205.54 369.98,163.41 C370.00,126.71 369.83,122.67 368.02,115.59 C363.60,98.30 355.20,89.62 338.78,85.36 C333.86,84.09 325.71,83.63 301.25,83.27 ZM 125.00 399.75 L 125.00 403.00 L 138.50 403.00 C151.23,403.00 152.00,402.89 152.00,401.05 C152.00,398.79 158.64,324.10 159.54,316.25 L 160.14 311.00 L 183.57 311.00 C201.89,311.00 207.00,311.28 207.00,312.27 C207.00,312.98 208.80,333.27 211.00,357.38 C213.20,381.48 215.00,401.61 215.00,402.10 C215.00,402.60 221.07,403.00 228.50,403.00 L 242.00 403.00 L 242.00 400.36 C242.00,398.91 240.22,381.25 238.05,361.11 C235.88,340.98 230.22,287.83 225.47,243.00 C220.73,198.18 214.96,143.95 212.66,122.50 L 208.48 83.50 L 183.79 83.23 L 159.10 82.97 L 158.60 86.23 C158.32,88.03 157.85,91.75 157.56,94.50 C157.01,99.50 153.71,130.14 143.50,225.00 C140.51,252.77 135.12,302.73 131.53,336.00 C127.94,369.27 125.00,397.96 125.00,399.75 ZM 330.00 376.62 C327.15,378.13 323.68,378.54 311.25,378.83 L 296.00 379.18 L 296.00 254.00 L 308.82 254.00 C328.16,254.00 335.37,256.87 339.81,266.32 C343.54,274.25 344.14,281.70 344.12,319.40 C344.11,352.80 343.95,355.99 342.08,362.03 C339.92,368.99 336.40,373.24 330.00,376.62 ZM 326.50 228.89 C324.30,229.50 316.54,229.99 309.25,229.99 L 296.00 230.00 L 296.00 106.75 L 310.75 107.26 C332.33,107.99 337.03,110.24 341.72,122.07 C343.28,126.02 343.47,130.68 343.49,165.50 C343.50,200.80 343.32,205.16 341.59,211.41 C339.27,219.84 332.98,227.12 326.50,228.89 ZM 204.00 283.62 L 204.00 286.00 L 163.00 286.00 L 163.00 283.00 C163.00,281.35 164.14,267.73 165.53,252.75 C167.52,231.22 178.00,109.13 178.00,107.41 C178.00,107.18 180.45,107.00 183.44,107.00 L 188.88 107.00 L 189.43 111.25 C189.74,113.59 191.80,138.45 194.02,166.50 C196.24,194.55 199.39,231.84 201.03,249.37 C202.66,266.90 204.00,282.31 204.00,283.62 Z" fill="rgb(35,34,32)"/>
<path d="M 270.00 82.81 L 301.25 83.27 C325.71,83.63 333.86,84.09 338.78,85.36 C355.20,89.62 363.60,98.30 368.02,115.59 C369.83,122.67 370.00,126.71 369.98,163.41 C369.96,205.54 369.46,211.65 365.20,221.28 C362.53,227.32 357.54,232.68 351.31,236.19 C346.62,238.84 346.00,239.57 346.00,242.40 C346.00,245.21 346.52,245.85 350.18,247.46 C355.30,249.72 362.15,256.41 364.94,261.88 C370.04,271.88 370.50,276.63 370.49,319.00 C370.48,353.31 370.24,359.62 368.67,367.00 C365.24,383.07 358.73,392.49 347.45,397.65 C337.46,402.22 330.77,402.96 299.25,402.98 L 270.00 403.00 ZM 125.00 399.75 C125.00,397.96 127.94,369.27 131.53,336.00 C135.12,302.73 140.51,252.77 143.50,225.00 C153.71,130.14 157.01,99.50 157.56,94.50 C157.85,91.75 158.32,88.03 158.60,86.23 L 159.10 82.97 L 183.79 83.23 L 208.48 83.50 L 212.66 122.50 C214.96,143.95 220.73,198.18 225.47,243.00 C230.22,287.83 235.88,340.98 238.05,361.11 C240.22,381.25 242.00,398.91 242.00,400.36 L 242.00 403.00 L 228.50 403.00 C221.07,403.00 215.00,402.60 215.00,402.10 C215.00,401.61 213.20,381.48 211.00,357.38 C208.80,333.27 207.00,312.98 207.00,312.27 C207.00,311.28 201.89,311.00 183.57,311.00 L 160.14 311.00 L 159.54 316.25 C158.64,324.10 152.00,398.79 152.00,401.05 C152.00,402.89 151.23,403.00 138.50,403.00 L 125.00 403.00 ZM 330.00 376.62 C336.40,373.24 339.92,368.99 342.08,362.03 C343.95,355.99 344.11,352.80 344.12,319.40 C344.14,281.70 343.54,274.25 339.81,266.32 C335.37,256.87 328.16,254.00 308.82,254.00 L 296.00 254.00 L 296.00 379.18 L 311.25 378.83 C323.68,378.54 327.15,378.13 330.00,376.62 ZM 326.50 228.89 C332.98,227.12 339.27,219.84 341.59,211.41 C343.32,205.16 343.50,200.80 343.49,165.50 C343.47,130.68 343.28,126.02 341.72,122.07 C337.03,110.24 332.33,107.99 310.75,107.26 L 296.00 106.75 L 296.00 230.00 L 309.25 229.99 C316.54,229.99 324.30,229.50 326.50,228.89 ZM 204.00 283.62 C204.00,282.31 202.66,266.90 201.03,249.37 C199.39,231.84 196.24,194.55 194.02,166.50 C191.80,138.45 189.74,113.59 189.43,111.25 L 188.88 107.00 L 183.44 107.00 C180.45,107.00 178.00,107.18 178.00,107.41 C178.00,109.13 167.52,231.22 165.53,252.75 C164.14,267.73 163.00,281.35 163.00,283.00 L 163.00 286.00 L 204.00 286.00 Z" fill="rgb(201,208,194)"/>
<path d="M 0.00 250.00 L 0.00 0.00 L 250.00 0.00 L 500.00 0.00 L 500.00 250.00 L 500.00 500.00 L 250.00 500.00 L 0.00 500.00 L 0.00 250.00 ZM 281.50 475.96 C346.06,466.59 402.21,431.33 438.27,377.50 C493.97,294.35 489.23,184.78 426.54,106.50 C391.33,62.53 341.70,33.91 285.00,24.88 C266.18,21.88 235.15,21.85 216.50,24.82 C190.90,28.90 169.62,35.72 147.66,46.90 C103.76,69.23 69.15,104.33 47.48,148.50 C29.08,186.00 21.37,224.23 24.07,264.54 C26.34,298.43 34.17,326.38 49.68,356.00 C61.53,378.61 73.29,394.50 91.52,412.52 C124.96,445.59 167.84,467.58 213.25,474.94 C230.63,477.76 229.70,477.69 249.50,477.84 C262.96,477.95 271.03,477.48 281.50,475.96 Z" fill="rgb(254,254,254)"/>
</g>
</svg>